<mxfile host="app.diagrams.net" modified="2022-12-14T06:05:54.473Z" agent="5.0 (Macintosh; Intel Mac OS X 10_15_7) AppleWebKit/537.36 (KHTML, like Gecko) Chrome/108.0.0.0 Safari/537.36" version="20.6.2" etag="uLUsGrMEQs0r5ZOJ2G6Y" type="github">
  <diagram id="jxAoyGEbiAtjkX13rI8i" name="Page-1">
    <mxGraphModel dx="485" dy="314" grid="1" gridSize="10" guides="1" tooltips="1" connect="1" arrows="1" fold="1" page="1" pageScale="1" pageWidth="850" pageHeight="1100" math="0" shadow="0">
      <root>
        <mxCell id="0" />
        <mxCell id="1" parent="0" />
        <mxCell id="Yh0HIJUcY9Rs-8bluOkP-3" style="edgeStyle=orthogonalEdgeStyle;rounded=0;orthogonalLoop=1;jettySize=auto;html=1;" edge="1" parent="1" source="Yh0HIJUcY9Rs-8bluOkP-1" target="Yh0HIJUcY9Rs-8bluOkP-2">
          <mxGeometry relative="1" as="geometry" />
        </mxCell>
        <mxCell id="Yh0HIJUcY9Rs-8bluOkP-5" style="edgeStyle=orthogonalEdgeStyle;rounded=0;orthogonalLoop=1;jettySize=auto;html=1;" edge="1" parent="1" source="Yh0HIJUcY9Rs-8bluOkP-1" target="Yh0HIJUcY9Rs-8bluOkP-4">
          <mxGeometry relative="1" as="geometry" />
        </mxCell>
        <mxCell id="Yh0HIJUcY9Rs-8bluOkP-1" value="Start&lt;br&gt;" style="rounded=0;whiteSpace=wrap;html=1;" vertex="1" parent="1">
          <mxGeometry x="110" y="280" width="120" height="60" as="geometry" />
        </mxCell>
        <mxCell id="Yh0HIJUcY9Rs-8bluOkP-7" style="edgeStyle=orthogonalEdgeStyle;rounded=0;orthogonalLoop=1;jettySize=auto;html=1;" edge="1" parent="1" source="Yh0HIJUcY9Rs-8bluOkP-2" target="Yh0HIJUcY9Rs-8bluOkP-6">
          <mxGeometry relative="1" as="geometry" />
        </mxCell>
        <mxCell id="Yh0HIJUcY9Rs-8bluOkP-2" value="Login" style="rounded=0;whiteSpace=wrap;html=1;" vertex="1" parent="1">
          <mxGeometry x="270" y="280" width="120" height="60" as="geometry" />
        </mxCell>
        <mxCell id="Yh0HIJUcY9Rs-8bluOkP-4" value="Sign up" style="rounded=0;whiteSpace=wrap;html=1;" vertex="1" parent="1">
          <mxGeometry x="220" y="160" width="120" height="60" as="geometry" />
        </mxCell>
        <mxCell id="Yh0HIJUcY9Rs-8bluOkP-9" value="" style="edgeStyle=orthogonalEdgeStyle;rounded=0;orthogonalLoop=1;jettySize=auto;html=1;" edge="1" parent="1" source="Yh0HIJUcY9Rs-8bluOkP-6" target="Yh0HIJUcY9Rs-8bluOkP-8">
          <mxGeometry relative="1" as="geometry" />
        </mxCell>
        <mxCell id="Yh0HIJUcY9Rs-8bluOkP-6" value="My plans" style="rounded=0;whiteSpace=wrap;html=1;" vertex="1" parent="1">
          <mxGeometry x="410" y="280" width="120" height="60" as="geometry" />
        </mxCell>
        <mxCell id="Yh0HIJUcY9Rs-8bluOkP-11" value="" style="edgeStyle=orthogonalEdgeStyle;rounded=0;orthogonalLoop=1;jettySize=auto;html=1;" edge="1" parent="1" source="Yh0HIJUcY9Rs-8bluOkP-8" target="Yh0HIJUcY9Rs-8bluOkP-10">
          <mxGeometry relative="1" as="geometry" />
        </mxCell>
        <mxCell id="Yh0HIJUcY9Rs-8bluOkP-13" style="edgeStyle=orthogonalEdgeStyle;rounded=0;orthogonalLoop=1;jettySize=auto;html=1;" edge="1" parent="1" source="Yh0HIJUcY9Rs-8bluOkP-8" target="Yh0HIJUcY9Rs-8bluOkP-12">
          <mxGeometry relative="1" as="geometry">
            <Array as="points">
              <mxPoint x="750" y="310" />
            </Array>
          </mxGeometry>
        </mxCell>
        <mxCell id="Yh0HIJUcY9Rs-8bluOkP-31" style="edgeStyle=orthogonalEdgeStyle;rounded=0;orthogonalLoop=1;jettySize=auto;html=1;" edge="1" parent="1" source="Yh0HIJUcY9Rs-8bluOkP-8" target="Yh0HIJUcY9Rs-8bluOkP-30">
          <mxGeometry relative="1" as="geometry" />
        </mxCell>
        <mxCell id="Yh0HIJUcY9Rs-8bluOkP-8" value="Create a new plan" style="whiteSpace=wrap;html=1;rounded=0;" vertex="1" parent="1">
          <mxGeometry x="610" y="280" width="120" height="60" as="geometry" />
        </mxCell>
        <mxCell id="Yh0HIJUcY9Rs-8bluOkP-29" value="" style="edgeStyle=orthogonalEdgeStyle;rounded=0;orthogonalLoop=1;jettySize=auto;html=1;" edge="1" parent="1" source="Yh0HIJUcY9Rs-8bluOkP-10" target="Yh0HIJUcY9Rs-8bluOkP-23">
          <mxGeometry relative="1" as="geometry" />
        </mxCell>
        <mxCell id="Yh0HIJUcY9Rs-8bluOkP-10" value="Add expenses&amp;nbsp;" style="whiteSpace=wrap;html=1;rounded=0;" vertex="1" parent="1">
          <mxGeometry x="810" y="280" width="120" height="60" as="geometry" />
        </mxCell>
        <mxCell id="Yh0HIJUcY9Rs-8bluOkP-15" style="edgeStyle=orthogonalEdgeStyle;rounded=0;orthogonalLoop=1;jettySize=auto;html=1;" edge="1" parent="1" source="Yh0HIJUcY9Rs-8bluOkP-12" target="Yh0HIJUcY9Rs-8bluOkP-14">
          <mxGeometry relative="1" as="geometry" />
        </mxCell>
        <mxCell id="Yh0HIJUcY9Rs-8bluOkP-12" value="Add Income" style="whiteSpace=wrap;html=1;rounded=0;" vertex="1" parent="1">
          <mxGeometry x="810" y="160" width="120" height="60" as="geometry" />
        </mxCell>
        <mxCell id="Yh0HIJUcY9Rs-8bluOkP-17" value="" style="edgeStyle=orthogonalEdgeStyle;rounded=0;orthogonalLoop=1;jettySize=auto;html=1;" edge="1" parent="1" source="Yh0HIJUcY9Rs-8bluOkP-14" target="Yh0HIJUcY9Rs-8bluOkP-16">
          <mxGeometry relative="1" as="geometry" />
        </mxCell>
        <mxCell id="Yh0HIJUcY9Rs-8bluOkP-14" value="Name of income" style="whiteSpace=wrap;html=1;rounded=0;" vertex="1" parent="1">
          <mxGeometry x="950" y="160" width="120" height="60" as="geometry" />
        </mxCell>
        <mxCell id="Yh0HIJUcY9Rs-8bluOkP-19" value="" style="edgeStyle=orthogonalEdgeStyle;rounded=0;orthogonalLoop=1;jettySize=auto;html=1;" edge="1" parent="1" source="Yh0HIJUcY9Rs-8bluOkP-16" target="Yh0HIJUcY9Rs-8bluOkP-18">
          <mxGeometry relative="1" as="geometry" />
        </mxCell>
        <mxCell id="Yh0HIJUcY9Rs-8bluOkP-16" value="Growth nature of income&lt;br&gt;(Linear, constant, etc.)" style="whiteSpace=wrap;html=1;rounded=0;" vertex="1" parent="1">
          <mxGeometry x="1150" y="160" width="120" height="60" as="geometry" />
        </mxCell>
        <mxCell id="Yh0HIJUcY9Rs-8bluOkP-21" value="" style="edgeStyle=orthogonalEdgeStyle;rounded=0;orthogonalLoop=1;jettySize=auto;html=1;" edge="1" parent="1" source="Yh0HIJUcY9Rs-8bluOkP-18" target="Yh0HIJUcY9Rs-8bluOkP-20">
          <mxGeometry relative="1" as="geometry" />
        </mxCell>
        <mxCell id="Yh0HIJUcY9Rs-8bluOkP-18" value="Start value" style="whiteSpace=wrap;html=1;rounded=0;" vertex="1" parent="1">
          <mxGeometry x="1350" y="160" width="120" height="60" as="geometry" />
        </mxCell>
        <mxCell id="Yh0HIJUcY9Rs-8bluOkP-20" value="Growth rate" style="whiteSpace=wrap;html=1;rounded=0;" vertex="1" parent="1">
          <mxGeometry x="1550" y="160" width="120" height="60" as="geometry" />
        </mxCell>
        <mxCell id="Yh0HIJUcY9Rs-8bluOkP-22" value="" style="edgeStyle=orthogonalEdgeStyle;rounded=0;orthogonalLoop=1;jettySize=auto;html=1;" edge="1" parent="1" source="Yh0HIJUcY9Rs-8bluOkP-23" target="Yh0HIJUcY9Rs-8bluOkP-25">
          <mxGeometry relative="1" as="geometry" />
        </mxCell>
        <mxCell id="Yh0HIJUcY9Rs-8bluOkP-23" value="Name of Expense" style="whiteSpace=wrap;html=1;rounded=0;" vertex="1" parent="1">
          <mxGeometry x="960" y="280" width="120" height="60" as="geometry" />
        </mxCell>
        <mxCell id="Yh0HIJUcY9Rs-8bluOkP-24" value="" style="edgeStyle=orthogonalEdgeStyle;rounded=0;orthogonalLoop=1;jettySize=auto;html=1;" edge="1" parent="1" source="Yh0HIJUcY9Rs-8bluOkP-25" target="Yh0HIJUcY9Rs-8bluOkP-27">
          <mxGeometry relative="1" as="geometry" />
        </mxCell>
        <mxCell id="Yh0HIJUcY9Rs-8bluOkP-25" value="Growth nature of income&lt;br&gt;(Linear, constant, etc.)" style="whiteSpace=wrap;html=1;rounded=0;" vertex="1" parent="1">
          <mxGeometry x="1160" y="280" width="120" height="60" as="geometry" />
        </mxCell>
        <mxCell id="Yh0HIJUcY9Rs-8bluOkP-26" value="" style="edgeStyle=orthogonalEdgeStyle;rounded=0;orthogonalLoop=1;jettySize=auto;html=1;" edge="1" parent="1" source="Yh0HIJUcY9Rs-8bluOkP-27" target="Yh0HIJUcY9Rs-8bluOkP-28">
          <mxGeometry relative="1" as="geometry" />
        </mxCell>
        <mxCell id="Yh0HIJUcY9Rs-8bluOkP-27" value="Start value" style="whiteSpace=wrap;html=1;rounded=0;" vertex="1" parent="1">
          <mxGeometry x="1360" y="280" width="120" height="60" as="geometry" />
        </mxCell>
        <mxCell id="Yh0HIJUcY9Rs-8bluOkP-28" value="Growth rate" style="whiteSpace=wrap;html=1;rounded=0;" vertex="1" parent="1">
          <mxGeometry x="1560" y="280" width="120" height="60" as="geometry" />
        </mxCell>
        <mxCell id="Yh0HIJUcY9Rs-8bluOkP-33" style="edgeStyle=orthogonalEdgeStyle;rounded=0;orthogonalLoop=1;jettySize=auto;html=1;" edge="1" parent="1" source="Yh0HIJUcY9Rs-8bluOkP-30" target="Yh0HIJUcY9Rs-8bluOkP-32">
          <mxGeometry relative="1" as="geometry" />
        </mxCell>
        <mxCell id="Yh0HIJUcY9Rs-8bluOkP-30" value="View plan" style="whiteSpace=wrap;html=1;rounded=0;" vertex="1" parent="1">
          <mxGeometry x="610" y="410" width="120" height="60" as="geometry" />
        </mxCell>
        <mxCell id="Yh0HIJUcY9Rs-8bluOkP-32" value="" style="whiteSpace=wrap;html=1;rounded=0;" vertex="1" parent="1">
          <mxGeometry x="610" y="530" width="120" height="60" as="geometry" />
        </mxCell>
        <mxCell id="Yh0HIJUcY9Rs-8bluOkP-36" value="" style="endArrow=classic;html=1;rounded=0;exitX=1;exitY=0.5;exitDx=0;exitDy=0;entryX=0.325;entryY=0.985;entryDx=0;entryDy=0;entryPerimeter=0;" edge="1" parent="1" source="Yh0HIJUcY9Rs-8bluOkP-30" target="Yh0HIJUcY9Rs-8bluOkP-10">
          <mxGeometry width="50" height="50" relative="1" as="geometry">
            <mxPoint x="830" y="460" as="sourcePoint" />
            <mxPoint x="850" y="350" as="targetPoint" />
            <Array as="points">
              <mxPoint x="850" y="440" />
            </Array>
          </mxGeometry>
        </mxCell>
        <mxCell id="Yh0HIJUcY9Rs-8bluOkP-37" value="" style="endArrow=classic;html=1;rounded=0;" edge="1" parent="1">
          <mxGeometry width="50" height="50" relative="1" as="geometry">
            <mxPoint x="730" y="440" as="sourcePoint" />
            <mxPoint x="760" y="190" as="targetPoint" />
            <Array as="points">
              <mxPoint x="760" y="440" />
            </Array>
          </mxGeometry>
        </mxCell>
      </root>
    </mxGraphModel>
  </diagram>
</mxfile>
